<?xml version="1.0" encoding="UTF-8"?>
<!DOCTYPE svg PUBLIC "-//W3C//DTD SVG 1.1//EN" "http://www.w3.org/Graphics/SVG/1.1/DTD/svg11.dtd">
<svg xmlns="http://www.w3.org/2000/svg" version="1.1" width="352px" height="351px" style="shape-rendering:geometricPrecision; text-rendering:geometricPrecision; image-rendering:optimizeQuality; fill-rule:evenodd; clip-rule:evenodd" xmlns:xlink="http://www.w3.org/1999/xlink">
<g><path style="opacity:1" fill="#fdc912" d="M 159.5,-0.5 C 170.167,-0.5 180.833,-0.5 191.5,-0.5C 192.334,0.747897 193.667,1.41456 195.5,1.5C 201.814,2.41439 208.147,3.08106 214.5,3.5C 214.833,3.5 215.167,3.5 215.5,3.5C 215.611,4.11742 215.944,4.61742 216.5,5C 218.81,5.49665 221.143,5.66331 223.5,5.5C 223.791,6.64911 224.624,7.31577 226,7.5C 228.137,8.07665 230.304,8.40999 232.5,8.5C 235.37,10.7943 238.703,12.1277 242.5,12.5C 244.426,14.2927 246.759,15.2927 249.5,15.5C 249.833,15.5 250.167,15.5 250.5,15.5C 251.238,19.2178 253.571,21.0511 257.5,21C 258.167,22 258.833,23 259.5,24C 261.81,24.4966 264.143,24.6633 266.5,24.5C 268.434,25.1103 270.101,26.1103 271.5,27.5C 272.207,29.1344 273.373,30.4677 275,31.5C 275.483,32.448 275.649,33.448 275.5,34.5C 277.167,34.5 278.833,34.5 280.5,34.5C 280.337,36.8568 280.503,39.1902 281,41.5C 282.062,40.9032 283.228,40.5698 284.5,40.5C 286.535,41.2043 288.535,41.871 290.5,42.5C 291.031,44.6237 292.365,46.1237 294.5,47C 293.983,53.1522 296.983,56.1522 303.5,56C 304.725,59.7203 307.059,62.2203 310.5,63.5C 310.343,64.8734 310.51,66.2068 311,67.5C 311.671,66.7476 312.504,66.4142 313.5,66.5C 314.167,66.5 314.5,66.8333 314.5,67.5C 315.035,72.2197 317.369,75.553 321.5,77.5C 322.337,80.8522 323.837,83.8522 326,86.5C 326.494,88.1341 326.66,89.8008 326.5,91.5C 328.322,91.8308 329.989,92.4975 331.5,93.5C 334.341,97.8489 336.674,102.516 338.5,107.5C 338.5,108.833 338.5,110.167 338.5,111.5C 338.336,114.187 338.503,116.854 339,119.5C 341.659,123.821 343.492,128.488 344.5,133.5C 345.15,135.184 346.15,136.517 347.5,137.5C 349.158,144.447 350.491,151.447 351.5,158.5C 351.5,169.5 351.5,180.5 351.5,191.5C 350.5,191.5 349.5,191.5 348.5,191.5C 348.5,196.833 348.5,202.167 348.5,207.5C 347.351,207.791 346.684,208.624 346.5,210C 345.69,213.792 345.356,217.625 345.5,221.5C 345.5,222.167 345.5,222.833 345.5,223.5C 344.5,223.5 343.5,223.5 342.5,223.5C 341.132,228.737 340.132,234.07 339.5,239.5C 338.25,239.577 337.417,240.244 337,241.5C 335.921,244.063 335.421,246.729 335.5,249.5C 333.461,250.911 332.461,252.911 332.5,255.5C 332.672,256.492 332.338,257.158 331.5,257.5C 330.272,258.306 329.272,259.306 328.5,260.5C 327.169,262.951 325.502,265.284 323.5,267.5C 322.628,269.45 321.961,271.45 321.5,273.5C 321.5,273.833 321.5,274.167 321.5,274.5C 317.679,274.713 315.513,276.713 315,280.5C 314.282,279.549 313.449,279.383 312.5,280C 313.38,281.356 313.714,282.856 313.5,284.5C 310.752,284.402 310.086,285.402 311.5,287.5C 309.785,289.882 307.785,291.882 305.5,293.5C 303.916,294.382 302.249,295.215 300.5,296C 299.663,297.011 299.33,298.178 299.5,299.5C 298.5,299.5 297.5,299.5 296.5,299.5C 296.5,300.833 296.5,302.167 296.5,303.5C 293.606,303.556 290.939,304.39 288.5,306C 287.62,307.356 287.286,308.856 287.5,310.5C 284.425,311.391 281.425,312.557 278.5,314C 279.167,314.333 279.833,314.667 280.5,315C 279.207,315.49 277.873,315.657 276.5,315.5C 276.5,316.833 276.5,318.167 276.5,319.5C 274.833,319.5 273.167,319.5 271.5,319.5C 271.719,320.675 271.386,321.675 270.5,322.5C 267.417,324.361 264.084,325.528 260.5,326C 258.166,328.838 255.166,330.671 251.5,331.5C 250.147,332.524 249.48,333.857 249.5,335.5C 246.369,334.908 244.036,335.908 242.5,338.5C 242.167,338.5 241.833,338.5 241.5,338.5C 239.033,338.755 237.033,339.755 235.5,341.5C 232.084,341.528 229.084,342.528 226.5,344.5C 225.432,345.434 224.099,345.768 222.5,345.5C 219.219,345.42 216.219,346.087 213.5,347.5C 211.265,347.205 209.265,347.539 207.5,348.5C 201.949,348.527 196.616,349.194 191.5,350.5C 179.5,350.5 167.5,350.5 155.5,350.5C 149.674,349.22 143.674,348.22 137.5,347.5C 136.878,345.665 135.544,344.498 133.5,344C 127.793,343.358 122.127,342.525 116.5,341.5C 116.167,341.5 115.833,341.5 115.5,341.5C 114.41,340.143 113.076,339.143 111.5,338.5C 108.749,336.025 105.416,335.025 101.5,335.5C 100.393,333.031 98.3933,332.031 95.5,332.5C 95.0557,330.887 94.0557,329.72 92.5,329C 92.8333,328.667 93.1667,328.333 93.5,328C 87.3533,325.321 81.3533,322.488 75.5,319.5C 75.5,318.5 75.5,317.5 75.5,316.5C 71.926,317.092 69.926,315.592 69.5,312C 70.6226,310.956 71.9559,310.29 73.5,310C 70.1996,310.046 66.8663,310.212 63.5,310.5C 63.7135,308.856 63.3802,307.356 62.5,306C 58.6151,304.669 55.6151,302.336 53.5,299C 51.5932,297.878 49.5932,297.045 47.5,296.5C 46.7184,291.994 44.3851,288.494 40.5,286C 41.1667,285 41.8333,284 42.5,283C 42.1667,282.5 41.8333,282 41.5,281.5C 40.6667,282.5 39.8333,283.5 39,284.5C 38.0816,282.624 36.5816,281.624 34.5,281.5C 33.2485,279.999 32.2485,278.332 31.5,276.5C 30.9812,272.657 28.9812,269.99 25.5,268.5C 21.8969,262.293 18.5636,255.96 15.5,249.5C 15.4107,243.666 13.4107,238.666 9.5,234.5C 7.33212,226.48 5.66545,218.313 4.5,210C 4.31577,208.624 3.64911,207.791 2.5,207.5C 1.42725,201.844 0.42725,196.177 -0.5,190.5C -0.5,180.167 -0.5,169.833 -0.5,159.5C 0.551416,154.354 1.21808,149.021 1.5,143.5C 3.34351,141.721 4.01017,139.388 3.5,136.5C 5.03954,134.162 5.70621,131.495 5.5,128.5C 5.26269,127.209 5.59603,126.209 6.5,125.5C 7.92381,123.485 8.59047,121.152 8.5,118.5C 11.1345,114.605 12.8012,110.272 13.5,105.5C 15.2132,104.365 15.8799,102.698 15.5,100.5C 17.8111,97.2331 20.1444,93.8998 22.5,90.5C 23.3721,88.5504 24.0388,86.5504 24.5,84.5C 25.6551,81.5251 27.3218,78.8584 29.5,76.5C 31.0481,76.1788 31.7148,75.1788 31.5,73.5C 32.1667,72.1667 33.1667,71.1667 34.5,70.5C 35.973,69.2599 37.6396,68.2599 39.5,67.5C 41.1195,63.8935 43.1195,60.5602 45.5,57.5C 45.9321,56.2905 46.5987,55.2905 47.5,54.5C 49.1992,54.6602 50.8659,54.4935 52.5,54C 54.2923,49.9798 56.9589,46.6464 60.5,44C 62.1341,43.5065 63.8008,43.3398 65.5,43.5C 65.5,42.5 65.5,41.5 65.5,40.5C 67.1439,40.2865 68.6439,40.6198 70,41.5C 70.3333,40.1667 70.6667,38.8333 71,37.5C 73.3678,36.6314 74.8678,34.9647 75.5,32.5C 76.6888,31.5713 78.0222,31.238 79.5,31.5C 79.5,30.5 79.5,29.5 79.5,28.5C 80.8734,28.6567 82.2068,28.49 83.5,28C 82.4019,27.2303 82.4019,26.397 83.5,25.5C 84.4959,25.4142 85.3292,25.7476 86,26.5C 88.6971,24.3003 91.1971,21.967 93.5,19.5C 95.1992,19.6602 96.8659,19.4935 98.5,19C 102.816,16.535 107.15,14.3684 111.5,12.5C 113.076,11.8571 114.41,10.8571 115.5,9.5C 115.833,9.5 116.167,9.5 116.5,9.5C 122.498,8.58831 128.165,6.92164 133.5,4.5C 135.848,4.33045 138.182,3.99712 140.5,3.5C 142.03,3.36015 143.03,2.69348 143.5,1.5C 143.833,1.5 144.167,1.5 144.5,1.5C 149.944,2.10834 154.944,1.44167 159.5,-0.5 Z"/></g>
<g><path style="opacity:0.651" fill="#f5e386" d="M 153.5,-0.5 C 155.5,-0.5 157.5,-0.5 159.5,-0.5C 154.944,1.44167 149.944,2.10834 144.5,1.5C 147.5,0.833333 150.5,0.166667 153.5,-0.5 Z"/></g>
<g><path style="opacity:0.165" fill="#fae288" d="M 191.5,-0.5 C 193.5,-0.5 195.5,-0.5 197.5,-0.5C 203.256,0.417889 208.923,1.75122 214.5,3.5C 208.147,3.08106 201.814,2.41439 195.5,1.5C 193.667,1.41456 192.334,0.747897 191.5,-0.5 Z"/></g>
<g><path style="opacity:0.231" fill="#fae295" d="M 143.5,1.5 C 143.03,2.69348 142.03,3.36015 140.5,3.5C 138.182,3.99712 135.848,4.33045 133.5,4.5C 136.583,3.00731 139.917,2.00731 143.5,1.5 Z"/></g>
<g><path style="opacity:0.322" fill="#fae399" d="M 215.5,3.5 C 218.373,3.80233 221.039,4.46899 223.5,5.5C 221.143,5.66331 218.81,5.49665 216.5,5C 215.944,4.61742 215.611,4.11742 215.5,3.5 Z"/></g>
<g><path style="opacity:0.137" fill="#faeb98" d="M 223.5,5.5 C 226.785,5.92809 229.785,6.92809 232.5,8.5C 230.304,8.40999 228.137,8.07665 226,7.5C 224.624,7.31577 223.791,6.64911 223.5,5.5 Z"/></g>
<g><path style="opacity:0.416" fill="#f4db71" d="M 133.5,4.5 C 128.165,6.92164 122.498,8.58831 116.5,9.5C 121.79,6.85081 127.457,5.18415 133.5,4.5 Z"/></g>
<g><path style="opacity:0.118" fill="#f9e59f" d="M 232.5,8.5 C 236.137,9.26349 239.47,10.5968 242.5,12.5C 238.703,12.1277 235.37,10.7943 232.5,8.5 Z"/></g>
<g><path style="opacity:0.082" fill="#fbe8a0" d="M 115.5,9.5 C 114.41,10.8571 113.076,11.8571 111.5,12.5C 110.5,12.5 109.5,12.5 108.5,12.5C 110.509,10.9348 112.843,9.93482 115.5,9.5 Z"/></g>
<g><path style="opacity:0.118" fill="#fbea9f" d="M 242.5,12.5 C 245.241,12.7073 247.574,13.7073 249.5,15.5C 246.759,15.2927 244.426,14.2927 242.5,12.5 Z"/></g>
<g><path style="opacity:0.827" fill="#f4d455" d="M 108.5,12.5 C 109.5,12.5 110.5,12.5 111.5,12.5C 107.15,14.3684 102.816,16.535 98.5,19C 96.8659,19.4935 95.1992,19.6602 93.5,19.5C 98.0697,16.3836 103.07,14.0502 108.5,12.5 Z"/></g>
<g><path style="opacity:1" fill="#f6d55b" d="M 250.5,15.5 C 256.192,18.0089 261.526,21.0089 266.5,24.5C 264.143,24.6633 261.81,24.4966 259.5,24C 258.833,23 258.167,22 257.5,21C 253.571,21.0511 251.238,19.2178 250.5,15.5 Z"/></g>
<g><path style="opacity:0.976" fill="#f5d455" d="M 93.5,19.5 C 91.1971,21.967 88.6971,24.3003 86,26.5C 85.3292,25.7476 84.4959,25.4142 83.5,25.5C 86.4937,23.0002 89.827,21.0002 93.5,19.5 Z"/></g>
<g><path style="opacity:1" fill="#fd6c01" d="M 164.5,29.5 C 176.246,29.1843 187.913,29.851 199.5,31.5C 200.5,31.5 201.5,31.5 202.5,31.5C 201.737,32.2679 200.737,32.7679 199.5,33C 200.167,33.3333 200.833,33.6667 201.5,34C 189.5,34.3333 177.5,34.6667 165.5,35C 158.607,35.6253 151.941,37.1253 145.5,39.5C 142.522,38.0044 141.855,35.671 143.5,32.5C 150.14,30.1304 157.14,29.1304 164.5,29.5 Z"/></g>
<g><path style="opacity:1" fill="#f18903" d="M 164.5,29.5 C 172.323,28.3439 180.323,28.1772 188.5,29C 192.392,29.4188 196.058,30.2521 199.5,31.5C 187.913,29.851 176.246,29.1843 164.5,29.5 Z"/></g>
<g><path style="opacity:1" fill="#f77600" d="M 202.5,31.5 C 205.874,31.6744 209.207,32.1744 212.5,33C 220.092,35.8639 227.758,38.5306 235.5,41C 245.663,46.914 255.663,53.0807 265.5,59.5C 265.53,60.4972 265.03,61.1639 264,61.5C 232.466,39.8634 197.632,32.0301 159.5,38C 153.196,39.3839 146.862,40.5505 140.5,41.5C 139.766,40.2921 139.433,38.9587 139.5,37.5C 135.5,37.5 131.5,37.5 127.5,37.5C 132.258,34.6956 137.591,33.0289 143.5,32.5C 141.855,35.671 142.522,38.0044 145.5,39.5C 151.941,37.1253 158.607,35.6253 165.5,35C 177.5,34.6667 189.5,34.3333 201.5,34C 200.833,33.6667 200.167,33.3333 199.5,33C 200.737,32.7679 201.737,32.2679 202.5,31.5 Z"/></g>
<g><path style="opacity:1" fill="#fea100" d="M 265.5,59.5 C 288.177,77.5939 304.677,100.261 315,127.5C 317.723,135.282 319.223,143.282 319.5,151.5C 319.5,166.167 319.5,180.833 319.5,195.5C 317.843,210.811 313.843,225.478 307.5,239.5C 304.217,241.866 302.717,245.199 303,249.5C 296.667,258.167 290.333,266.833 284,275.5C 280.31,278.691 276.477,281.691 272.5,284.5C 271.614,285.325 271.281,286.325 271.5,287.5C 266.986,289.249 262.986,291.916 259.5,295.5C 222.615,320.331 182.281,327.831 138.5,318C 109.19,309.847 84.5233,294.347 64.5,271.5C 65.2389,271.631 65.9056,271.464 66.5,271C 60.8784,264.038 56.0451,256.538 52,248.5C 51.8996,244.627 50.3996,241.627 47.5,239.5C 35.9041,208.262 33.5707,176.262 40.5,143.5C 43.2644,138.606 44.931,133.273 45.5,127.5C 50.1946,120.476 54.6946,113.142 59,105.5C 59.3333,104.167 59.6667,102.833 60,101.5C 69.7867,88.3795 80.9534,76.5462 93.5,66C 100.182,62.5074 106.515,58.3407 112.5,53.5C 121.575,48.964 130.909,44.964 140.5,41.5C 146.862,40.5505 153.196,39.3839 159.5,38C 197.632,32.0301 232.466,39.8634 264,61.5C 265.03,61.1639 265.53,60.4972 265.5,59.5 Z"/></g>
<g><path style="opacity:1" fill="#f5ce34" d="M 83.5,25.5 C 82.4019,26.397 82.4019,27.2303 83.5,28C 82.2068,28.49 80.8734,28.6567 79.5,28.5C 79.5,29.5 79.5,30.5 79.5,31.5C 78.0222,31.238 76.6888,31.5713 75.5,32.5C 74.8678,34.9647 73.3678,36.6314 71,37.5C 70.6667,38.8333 70.3333,40.1667 70,41.5C 68.6439,40.6198 67.1439,40.2865 65.5,40.5C 65.5,41.5 65.5,42.5 65.5,43.5C 63.8008,43.3398 62.1341,43.5065 60.5,44C 56.9589,46.6464 54.2923,49.9798 52.5,54C 50.8659,54.4935 49.1992,54.6602 47.5,54.5C 58.0282,42.9159 70.0282,33.2492 83.5,25.5 Z"/></g>
<g><path style="opacity:1" fill="#f6d243" d="M 271.5,27.5 C 278.72,31.3877 285.053,36.3877 290.5,42.5C 288.535,41.871 286.535,41.2043 284.5,40.5C 283.228,40.5698 282.062,40.9032 281,41.5C 280.503,39.1902 280.337,36.8568 280.5,34.5C 278.833,34.5 277.167,34.5 275.5,34.5C 275.649,33.448 275.483,32.448 275,31.5C 273.373,30.4677 272.207,29.1344 271.5,27.5 Z"/></g>
<g><path style="opacity:0.941" fill="#f3d340" d="M 290.5,42.5 C 299.563,49.2284 307.23,57.2284 313.5,66.5C 312.504,66.4142 311.671,66.7476 311,67.5C 310.51,66.2068 310.343,64.8734 310.5,63.5C 307.059,62.2203 304.725,59.7203 303.5,56C 296.983,56.1522 293.983,53.1522 294.5,47C 292.365,46.1237 291.031,44.6237 290.5,42.5 Z"/></g>
<g><path style="opacity:1" fill="#f2d14d" d="M 45.5,57.5 C 43.1195,60.5602 41.1195,63.8935 39.5,67.5C 37.6396,68.2599 35.973,69.2599 34.5,70.5C 37.0464,65.2814 40.7131,60.9481 45.5,57.5 Z"/></g>
<g><path style="opacity:0.718" fill="#f4d558" d="M 314.5,67.5 C 317.605,70.2749 319.938,73.6082 321.5,77.5C 317.369,75.553 315.035,72.2197 314.5,67.5 Z"/></g>
<g><path style="opacity:0.302" fill="#fad695" d="M 31.5,73.5 C 31.7148,75.1788 31.0481,76.1788 29.5,76.5C 29.9321,75.2905 30.5987,74.2905 31.5,73.5 Z"/></g>
<g><path style="opacity:1" fill="#fec911" d="M 153.5,79.5 C 153.5,84.8333 153.5,90.1667 153.5,95.5C 153.328,96.4916 153.662,97.1583 154.5,97.5C 156.177,99.4979 158.177,99.8312 160.5,98.5C 162.167,101.167 163.833,101.167 165.5,98.5C 166.167,98.8333 166.833,99.1667 167.5,99.5C 170.039,98.8847 172.539,98.2181 175,97.5C 174.326,89.5588 174.493,81.5588 175.5,73.5C 180.833,73.5 186.167,73.5 191.5,73.5C 191.174,82.0168 191.507,90.3501 192.5,98.5C 193.5,98.5 194.5,98.5 195.5,98.5C 206.825,100.002 217.158,104.169 226.5,111C 227.793,111.49 229.127,111.657 230.5,111.5C 230.343,112.873 230.51,114.207 231,115.5C 233.125,118.428 234.958,121.428 236.5,124.5C 239.121,134.18 239.121,143.847 236.5,153.5C 233.745,159.258 229.745,164.258 224.5,168.5C 223.548,170.045 223.215,171.712 223.5,173.5C 226.327,173.584 228.994,174.25 231.5,175.5C 234.122,177.782 236.788,180.115 239.5,182.5C 241.521,185.235 243.521,187.901 245.5,190.5C 250.755,203.796 250.755,217.129 245.5,230.5C 245.5,231.167 245.167,231.5 244.5,231.5C 240.455,238.725 234.455,243.892 226.5,247C 215.29,250.59 203.957,252.757 192.5,253.5C 191.508,261.316 191.174,269.316 191.5,277.5C 185.5,277.5 179.5,277.5 173.5,277.5C 173.107,270.381 173.774,263.381 175.5,256.5C 175.36,254.97 174.693,253.97 173.5,253.5C 166.833,253.5 160.167,253.5 153.5,253.5C 152.508,261.316 152.174,269.316 152.5,277.5C 146.5,277.5 140.5,277.5 134.5,277.5C 134.183,268.915 134.517,260.415 135.5,252C 130.177,251.83 124.844,251.997 119.5,252.5C 115.9,252.28 112.4,251.613 109,250.5C 106.517,252.163 104.35,251.829 102.5,249.5C 104.721,245.459 105.888,241.126 106,236.5C 107.366,234.638 108.866,232.972 110.5,231.5C 114.5,231.5 118.5,231.5 122.5,231.5C 122.5,196.833 122.5,162.167 122.5,127.5C 122.5,124.833 122.5,122.167 122.5,119.5C 118.833,119.5 115.167,119.5 111.5,119.5C 109.549,119.773 108.049,119.107 107,117.5C 104.085,111.767 102.418,105.767 102,99.5C 102.5,99 103,98.5 103.5,98C 113.494,97.5002 123.494,97.3335 133.5,97.5C 133.334,89.4931 133.5,81.4931 134,73.5C 140.41,72.5223 146.91,72.189 153.5,72.5C 153.5,74.8333 153.5,77.1667 153.5,79.5 Z"/></g>
<g><path style="opacity:1" fill="#fa7101" d="M 127.5,37.5 C 131.5,37.5 135.5,37.5 139.5,37.5C 139.433,38.9587 139.766,40.2921 140.5,41.5C 130.909,44.964 121.575,48.964 112.5,53.5C 106.515,58.3407 100.182,62.5074 93.5,66C 80.9534,76.5462 69.7867,88.3795 60,101.5C 59.6667,102.833 59.3333,104.167 59,105.5C 54.6946,113.142 50.1946,120.476 45.5,127.5C 44.0244,125.938 42.5244,124.271 41,122.5C 39.3018,125.61 38.3018,128.943 38,132.5C 37.2597,134.319 36.0931,135.652 34.5,136.5C 46.8152,93.4195 73.1485,61.9195 113.5,42C 118.111,40.1876 122.777,38.6876 127.5,37.5 Z"/></g>
<g><path style="opacity:1" fill="#febe13" d="M 192.5,79.5 C 192.5,85.8333 192.5,92.1667 192.5,98.5C 191.507,90.3501 191.174,82.0168 191.5,73.5C 186.167,73.5 180.833,73.5 175.5,73.5C 174.493,81.5588 174.326,89.5588 175,97.5C 172.539,98.2181 170.039,98.8847 167.5,99.5C 166.833,99.1667 166.167,98.8333 165.5,98.5C 163.833,101.167 162.167,101.167 160.5,98.5C 158.177,99.8312 156.177,99.4979 154.5,97.5C 160.509,97.299 166.509,96.9657 172.5,96.5C 172.334,88.8261 172.5,81.1594 173,73.5C 179.41,72.5223 185.91,72.189 192.5,72.5C 192.5,74.8333 192.5,77.1667 192.5,79.5 Z"/></g>
<g><path style="opacity:1" fill="#fc6c01" d="M 199.5,96.5 C 199.5,96.8333 199.5,97.1667 199.5,97.5C 197.549,97.7733 196.049,97.1066 195,95.5C 194.501,90.5111 194.334,85.5111 194.5,80.5C 196.167,80.5 197.833,80.5 199.5,80.5C 199.5,85.8333 199.5,91.1667 199.5,96.5 Z"/></g>
<g><path style="opacity:1" fill="#f87003" d="M 153.5,79.5 C 155.833,79.5 158.167,79.5 160.5,79.5C 160.666,84.8437 160.499,90.1771 160,95.5C 157.837,96.768 155.67,96.768 153.5,95.5C 153.5,90.1667 153.5,84.8333 153.5,79.5 Z"/></g>
<g><path style="opacity:0.098" fill="#fcebbc" d="M 327.5,86.5 C 328.906,86.9731 329.573,87.9731 329.5,89.5C 328.094,89.0269 327.427,88.0269 327.5,86.5 Z"/></g>
<g><path style="opacity:1" fill="#f28201" d="M 192.5,79.5 C 195.167,79.5 197.833,79.5 200.5,79.5C 200.822,85.358 200.489,91.0247 199.5,96.5C 199.5,91.1667 199.5,85.8333 199.5,80.5C 197.833,80.5 196.167,80.5 194.5,80.5C 194.334,85.5111 194.501,90.5111 195,95.5C 196.049,97.1066 197.549,97.7733 199.5,97.5C 198.432,98.4345 197.099,98.7678 195.5,98.5C 194.5,98.5 193.5,98.5 192.5,98.5C 192.5,92.1667 192.5,85.8333 192.5,79.5 Z"/></g>
<g><path style="opacity:1" fill="#f4d34c" d="M 321.5,77.5 C 324.277,79.9505 326.277,82.9505 327.5,86.5C 327.427,88.0269 328.094,89.0269 329.5,89.5C 330.674,90.5137 331.34,91.847 331.5,93.5C 329.989,92.4975 328.322,91.8308 326.5,91.5C 326.66,89.8008 326.494,88.1341 326,86.5C 323.837,83.8522 322.337,80.8522 321.5,77.5 Z"/></g>
<g><path style="opacity:0.235" fill="#fbe9a8" d="M 24.5,84.5 C 24.0388,86.5504 23.3721,88.5504 22.5,90.5C 20.1444,93.8998 17.8111,97.2331 15.5,100.5C 17.4905,94.5106 20.4905,89.1773 24.5,84.5 Z"/></g>
<g><path style="opacity:0.133" fill="#faeeb1" d="M 15.5,100.5 C 15.8799,102.698 15.2132,104.365 13.5,105.5C 13.7959,103.597 14.4625,101.93 15.5,100.5 Z"/></g>
<g><path style="opacity:0.325" fill="#fbeaa7" d="M 338.5,107.5 C 341.473,113.085 343.473,119.085 344.5,125.5C 342.695,120.751 340.695,116.085 338.5,111.5C 338.5,110.167 338.5,108.833 338.5,107.5 Z"/></g>
<g><path style="opacity:0.255" fill="#fbe79f" d="M 13.5,105.5 C 12.8012,110.272 11.1345,114.605 8.5,118.5C 9.36968,113.777 11.0363,109.444 13.5,105.5 Z"/></g>
<g><path style="opacity:0.216" fill="#fdeba5" d="M 8.5,118.5 C 8.59047,121.152 7.92381,123.485 6.5,125.5C 6.40953,122.848 7.07619,120.515 8.5,118.5 Z"/></g>
<g><path style="opacity:1" fill="#f47902" d="M 111.5,119.5 C 115.167,119.5 118.833,119.5 122.5,119.5C 122.5,122.167 122.5,124.833 122.5,127.5C 119.833,127.5 117.167,127.5 114.5,127.5C 113.217,124.99 112.217,122.323 111.5,119.5 Z"/></g>
<g><path style="opacity:0.922" fill="#f1d034" d="M 338.5,111.5 C 340.695,116.085 342.695,120.751 344.5,125.5C 346.245,129.2 347.245,133.2 347.5,137.5C 346.15,136.517 345.15,135.184 344.5,133.5C 343.492,128.488 341.659,123.821 339,119.5C 338.503,116.854 338.336,114.187 338.5,111.5 Z"/></g>
<g><path style="opacity:1" fill="#ef7900" d="M 191.5,122.5 C 179.674,120.42 167.841,120.086 156,121.5C 155.333,134.167 155.333,146.833 156,159.5C 155.791,163.459 157.625,165.126 161.5,164.5C 161.5,164.833 161.5,165.167 161.5,165.5C 159.167,165.5 156.833,165.5 154.5,165.5C 154.5,150.167 154.5,134.833 154.5,119.5C 164.172,119.334 173.839,119.5 183.5,120C 186.379,120.546 189.046,121.379 191.5,122.5 Z"/></g>
<g><path style="opacity:1" fill="#fc6d02" d="M 191.5,122.5 C 196.26,122.71 199.927,124.71 202.5,128.5C 202.53,129.497 202.03,130.164 201,130.5C 198.645,130.041 196.479,129.208 194.5,128C 183.53,126.835 172.53,126.335 161.5,126.5C 161.5,139.167 161.5,151.833 161.5,164.5C 157.625,165.126 155.791,163.459 156,159.5C 155.333,146.833 155.333,134.167 156,121.5C 167.841,120.086 179.674,120.42 191.5,122.5 Z"/></g>
<g><path style="opacity:1" fill="#fda101" d="M 202.5,128.5 C 204.083,129.936 205.583,131.602 207,133.5C 211.012,150.661 204.512,161.161 187.5,165C 178.84,165.5 170.173,165.666 161.5,165.5C 161.5,165.167 161.5,164.833 161.5,164.5C 161.5,151.833 161.5,139.167 161.5,126.5C 172.53,126.335 183.53,126.835 194.5,128C 196.479,129.208 198.645,130.041 201,130.5C 202.03,130.164 202.53,129.497 202.5,128.5 Z"/></g>
<g><path style="opacity:0.176" fill="#f9e4a0" d="M 5.5,128.5 C 5.70621,131.495 5.03954,134.162 3.5,136.5C 3.56513,133.572 4.2318,130.905 5.5,128.5 Z"/></g>
<g><path style="opacity:1" fill="#fa6e01" d="M 243.5,159.5 C 241.883,166.781 237.883,172.114 231.5,175.5C 228.994,174.25 226.327,173.584 223.5,173.5C 223.215,171.712 223.548,170.045 224.5,168.5C 229.745,164.258 233.745,159.258 236.5,153.5C 237.458,153.047 238.292,152.381 239,151.5C 239.041,144.996 239.708,138.662 241,132.5C 242.054,135.433 243.22,138.266 244.5,141C 243.606,147.131 243.273,153.298 243.5,159.5 Z"/></g>
<g><path style="opacity:0.231" fill="#f8e19f" d="M 3.5,136.5 C 4.01017,139.388 3.34351,141.721 1.5,143.5C 2.06543,141.048 2.7321,138.715 3.5,136.5 Z"/></g>
<g><path style="opacity:1" fill="#fd6c02" d="M 45.5,127.5 C 44.931,133.273 43.2644,138.606 40.5,143.5C 39.1765,142.15 38.1765,142.317 37.5,144C 38.6709,149.351 38.0043,154.517 35.5,159.5C 34.4752,172.291 33.3085,184.958 32,197.5C 30.2071,182.193 30.0405,166.86 31.5,151.5C 31.1242,146.106 32.1242,141.106 34.5,136.5C 36.0931,135.652 37.2597,134.319 38,132.5C 38.3018,128.943 39.3018,125.61 41,122.5C 42.5244,124.271 44.0244,125.938 45.5,127.5 Z"/></g>
<g><path style="opacity:1" fill="#f57900" d="M 243.5,159.5 C 243.273,153.298 243.606,147.131 244.5,141C 243.22,138.266 242.054,135.433 241,132.5C 239.708,138.662 239.041,144.996 239,151.5C 238.292,152.381 237.458,153.047 236.5,153.5C 239.121,143.847 239.121,134.18 236.5,124.5C 236.259,121.001 237.092,120.668 239,123.5C 239.49,124.793 239.657,126.127 239.5,127.5C 240.833,127.5 242.167,127.5 243.5,127.5C 245.078,134.23 246.078,141.064 246.5,148C 246.409,151.198 246.076,154.365 245.5,157.5C 245.253,158.713 244.586,159.38 243.5,159.5 Z"/></g>
<g><path style="opacity:1" fill="#f77300" d="M 40.5,143.5 C 33.5707,176.262 35.9041,208.262 47.5,239.5C 48.0229,242.028 49.0229,244.361 50.5,246.5C 50.1237,248.803 49.1237,249.137 47.5,247.5C 39.9941,233.651 34.6608,218.985 31.5,203.5C 29.6958,190.25 29.0291,176.916 29.5,163.5C 29.0834,159.183 29.7501,155.183 31.5,151.5C 30.0405,166.86 30.2071,182.193 32,197.5C 33.3085,184.958 34.4752,172.291 35.5,159.5C 38.0043,154.517 38.6709,149.351 37.5,144C 38.1765,142.317 39.1765,142.15 40.5,143.5 Z"/></g>
<g><path style="opacity:1" fill="#f8aa02" d="M 319.5,151.5 C 322.378,163.524 323.211,175.857 322,188.5C 321.302,191.004 320.469,193.337 319.5,195.5C 319.5,180.833 319.5,166.167 319.5,151.5 Z"/></g>
<g><path style="opacity:1" fill="#fb6d01" d="M 207.5,189.5 C 207.821,191.048 208.821,191.715 210.5,191.5C 210.5,192.5 210.5,193.5 210.5,194.5C 194.288,191.926 177.954,190.926 161.5,191.5C 161.5,204.5 161.5,217.5 161.5,230.5C 159.533,230.739 157.699,230.406 156,229.5C 155.333,216.833 155.333,204.167 156,191.5C 156.653,189.436 157.82,187.769 159.5,186.5C 168.816,185.335 178.149,185.168 187.5,186C 194.224,187.081 200.891,188.248 207.5,189.5 Z"/></g>
<g><path style="opacity:1" fill="#ffbc1a" d="M 154.5,184.5 C 154.5,200.167 154.5,215.833 154.5,231.5C 152.62,230.922 151.62,229.588 151.5,227.5C 152.814,214.826 152.814,202.16 151.5,189.5C 152.396,187.664 153.396,185.997 154.5,184.5 Z"/></g>
<g><path style="opacity:1" fill="#ee7c00" d="M 154.5,184.5 C 166.838,184.333 179.171,184.5 191.5,185C 197.035,186.214 202.368,187.714 207.5,189.5C 200.891,188.248 194.224,187.081 187.5,186C 178.149,185.168 168.816,185.335 159.5,186.5C 157.82,187.769 156.653,189.436 156,191.5C 155.333,204.167 155.333,216.833 156,229.5C 157.699,230.406 159.533,230.739 161.5,230.5C 161.5,230.833 161.5,231.167 161.5,231.5C 159.167,231.5 156.833,231.5 154.5,231.5C 154.5,215.833 154.5,200.167 154.5,184.5 Z"/></g>
<g><path style="opacity:1" fill="#fea001" d="M 210.5,191.5 C 212.914,192.911 214.581,194.911 215.5,197.5C 215.536,202.631 215.369,207.965 215,213.5C 213.513,214.253 213.346,215.086 214.5,216C 211.334,217.668 209.001,220.168 207.5,223.5C 201.942,224.534 196.609,226.201 191.5,228.5C 188.833,228.833 186.167,229.167 183.5,229.5C 180.387,229.438 177.554,228.771 175,227.5C 172.145,230.954 168.979,231.287 165.5,228.5C 164.378,229.63 163.044,230.297 161.5,230.5C 161.5,217.5 161.5,204.5 161.5,191.5C 177.954,190.926 194.288,191.926 210.5,194.5C 210.5,193.5 210.5,192.5 210.5,191.5 Z"/></g>
<g><path style="opacity:1" fill="#fcb318" d="M 29.5,163.5 C 29.0291,176.916 29.6958,190.25 31.5,203.5C 30.4415,202.4 29.6082,201.066 29,199.5C 28.1737,187.326 28.3403,175.326 29.5,163.5 Z"/></g>
<g><path style="opacity:0.776" fill="#f7d659" d="M 351.5,191.5 C 351.5,191.833 351.5,192.167 351.5,192.5C 350.718,197.537 349.718,202.537 348.5,207.5C 348.5,202.167 348.5,196.833 348.5,191.5C 349.5,191.5 350.5,191.5 351.5,191.5 Z"/></g>
<g><path style="opacity:1" fill="#f77201" d="M 249.5,242.5 C 249.336,239.813 249.503,237.146 250,234.5C 251.783,231.922 252.949,229.089 253.5,226C 252.833,225.333 252.167,224.667 251.5,224C 252.428,223.612 253.095,222.945 253.5,222C 253.867,214.885 253.367,207.718 252,200.5C 250.733,208.062 250.066,215.729 250,223.5C 249.46,226.523 247.96,228.856 245.5,230.5C 250.755,217.129 250.755,203.796 245.5,190.5C 245.369,189.761 245.536,189.094 246,188.5C 251.438,193.636 254.772,199.97 256,207.5C 256.582,216.194 256.248,224.861 255,233.5C 253.643,236.898 251.81,239.898 249.5,242.5 Z"/></g>
<g><path style="opacity:0.639" fill="#f6da6a" d="M 2.5,207.5 C 3.64911,207.791 4.31577,208.624 4.5,210C 5.66545,218.313 7.33212,226.48 9.5,234.5C 5.78184,225.964 3.44851,216.964 2.5,207.5 Z"/></g>
<g><path style="opacity:0.341" fill="#f3d464" d="M 348.5,207.5 C 348.102,212.412 347.102,217.079 345.5,221.5C 345.356,217.625 345.69,213.792 346.5,210C 346.684,208.624 347.351,207.791 348.5,207.5 Z"/></g>
<g><path style="opacity:1" fill="#faa701" d="M 215.5,197.5 C 216.151,198.091 216.818,198.757 217.5,199.5C 219.946,209.035 217.946,217.369 211.5,224.5C 205.426,228.442 198.759,230.608 191.5,231C 181.506,231.5 171.506,231.666 161.5,231.5C 161.5,231.167 161.5,230.833 161.5,230.5C 163.044,230.297 164.378,229.63 165.5,228.5C 168.979,231.287 172.145,230.954 175,227.5C 177.554,228.771 180.387,229.438 183.5,229.5C 186.167,229.167 188.833,228.833 191.5,228.5C 196.609,226.201 201.942,224.534 207.5,223.5C 209.001,220.168 211.334,217.668 214.5,216C 213.346,215.086 213.513,214.253 215,213.5C 215.369,207.965 215.536,202.631 215.5,197.5 Z"/></g>
<g><path style="opacity:0.835" fill="#f3d75c" d="M 345.5,223.5 C 344.072,229.125 342.072,234.459 339.5,239.5C 340.132,234.07 341.132,228.737 342.5,223.5C 343.5,223.5 344.5,223.5 345.5,223.5 Z"/></g>
<g><path style="opacity:0.604" fill="#f6da77" d="M 9.5,234.5 C 13.4107,238.666 15.4107,243.666 15.5,249.5C 12.7042,244.895 10.7042,239.895 9.5,234.5 Z"/></g>
<g><path style="opacity:0.604" fill="#f4d76c" d="M 339.5,239.5 C 338.686,243.116 337.352,246.449 335.5,249.5C 335.421,246.729 335.921,244.063 337,241.5C 337.417,240.244 338.25,239.577 339.5,239.5 Z"/></g>
<g><path style="opacity:1" fill="#fe6902" d="M 249.5,242.5 C 245.221,241.454 242.555,242.954 241.5,247C 241.833,247.333 242.167,247.667 242.5,248C 237.567,248.811 232.9,250.311 228.5,252.5C 227.833,252.333 227.167,252.167 226.5,252C 227.571,251.148 228.571,250.315 229.5,249.5C 230.655,247.175 232.655,246.008 235.5,246C 237.851,243.934 240.351,242.1 243,240.5C 244.289,237.649 244.789,234.649 244.5,231.5C 245.167,231.5 245.5,231.167 245.5,230.5C 247.96,228.856 249.46,226.523 250,223.5C 250.066,215.729 250.733,208.062 252,200.5C 253.367,207.718 253.867,214.885 253.5,222C 253.095,222.945 252.428,223.612 251.5,224C 252.167,224.667 252.833,225.333 253.5,226C 252.949,229.089 251.783,231.922 250,234.5C 249.503,237.146 249.336,239.813 249.5,242.5 Z"/></g>
<g><path style="opacity:1" fill="#f37b00" d="M 244.5,231.5 C 244.789,234.649 244.289,237.649 243,240.5C 240.351,242.1 237.851,243.934 235.5,246C 232.655,246.008 230.655,247.175 229.5,249.5C 217.971,252.3 206.304,254.3 194.5,255.5C 194.694,263.249 194.694,270.916 194.5,278.5C 190.555,279.268 186.555,279.768 182.5,280C 185.167,281.333 185.167,282.667 182.5,284C 188.157,284.499 193.824,284.666 199.5,284.5C 193.355,285.49 187.022,285.823 180.5,285.5C 180.5,283.167 180.5,280.833 180.5,278.5C 184.5,278.5 188.5,278.5 192.5,278.5C 192.5,270.167 192.5,261.833 192.5,253.5C 203.957,252.757 215.29,250.59 226.5,247C 234.455,243.892 240.455,238.725 244.5,231.5 Z"/></g>
<g><path style="opacity:1" fill="#f18101" d="M 47.5,239.5 C 50.3996,241.627 51.8996,244.627 52,248.5C 56.0451,256.538 60.8784,264.038 66.5,271C 65.9056,271.464 65.2389,271.631 64.5,271.5C 58.776,263.459 53.1093,255.459 47.5,247.5C 49.1237,249.137 50.1237,248.803 50.5,246.5C 49.0229,244.361 48.0229,242.028 47.5,239.5 Z"/></g>
<g><path style="opacity:1" fill="#febf17" d="M 110.5,231.5 C 108.866,232.972 107.366,234.638 106,236.5C 105.888,241.126 104.721,245.459 102.5,249.5C 104.35,251.829 106.517,252.163 109,250.5C 112.4,251.613 115.9,252.28 119.5,252.5C 124.844,251.997 130.177,251.83 135.5,252C 134.517,260.415 134.183,268.915 134.5,277.5C 133.511,272.025 133.178,266.358 133.5,260.5C 133.5,258.167 133.5,255.833 133.5,253.5C 125.167,253.5 116.833,253.5 108.5,253.5C 105.07,254.21 102.737,253.043 101.5,250C 102.857,243.697 104.524,237.53 106.5,231.5C 107.833,231.5 109.167,231.5 110.5,231.5 Z"/></g>
<g><path style="opacity:0.094" fill="#faec8f" d="M 335.5,249.5 C 335.008,251.819 334.008,253.819 332.5,255.5C 332.461,252.911 333.461,250.911 335.5,249.5 Z"/></g>
<g><path style="opacity:1" fill="#fc6c01" d="M 249.5,242.5 C 246.055,246.775 242.055,250.609 237.5,254C 225.184,257.872 212.517,260.039 199.5,260.5C 199.5,268.5 199.5,276.5 199.5,284.5C 193.824,284.666 188.157,284.499 182.5,284C 185.167,282.667 185.167,281.333 182.5,280C 186.555,279.768 190.555,279.268 194.5,278.5C 194.694,270.916 194.694,263.249 194.5,255.5C 206.304,254.3 217.971,252.3 229.5,249.5C 228.571,250.315 227.571,251.148 226.5,252C 227.167,252.167 227.833,252.333 228.5,252.5C 232.9,250.311 237.567,248.811 242.5,248C 242.167,247.667 241.833,247.333 241.5,247C 242.555,242.954 245.221,241.454 249.5,242.5 Z"/></g>
<g><path style="opacity:1" fill="#f57900" d="M 108.5,253.5 C 116.833,253.5 125.167,253.5 133.5,253.5C 133.5,255.833 133.5,258.167 133.5,260.5C 133.167,260.5 132.833,260.5 132.5,260.5C 125.656,261.819 118.656,261.819 111.5,260.5C 108.907,258.929 107.907,256.596 108.5,253.5 Z"/></g>
<g><path style="opacity:1" fill="#fe6a02" d="M 132.5,260.5 C 125.665,258.742 118.665,258.075 111.5,258.5C 111.5,257.167 111.5,255.833 111.5,254.5C 118.529,254.377 125.529,254.71 132.5,255.5C 132.5,257.167 132.5,258.833 132.5,260.5 Z"/></g>
<g><path style="opacity:0.024" fill="#fcecba" d="M 331.5,257.5 C 331.25,259.674 330.25,261.341 328.5,262.5C 328.5,261.833 328.5,261.167 328.5,260.5C 329.272,259.306 330.272,258.306 331.5,257.5 Z"/></g>
<g><path style="opacity:0.655" fill="#f4dd6c" d="M 328.5,260.5 C 328.5,261.167 328.5,261.833 328.5,262.5C 326.913,266.683 324.579,270.35 321.5,273.5C 321.961,271.45 322.628,269.45 323.5,267.5C 325.502,265.284 327.169,262.951 328.5,260.5 Z"/></g>
<g><path style="opacity:1" fill="#fdb516" d="M 173.5,253.5 C 174.693,253.97 175.36,254.97 175.5,256.5C 173.774,263.381 173.107,270.381 173.5,277.5C 179.5,277.5 185.5,277.5 191.5,277.5C 191.174,269.316 191.508,261.316 192.5,253.5C 192.5,261.833 192.5,270.167 192.5,278.5C 188.5,278.5 184.5,278.5 180.5,278.5C 177.833,278.5 175.167,278.5 172.5,278.5C 172.5,272.5 172.5,266.5 172.5,260.5C 173.468,258.393 173.802,256.059 173.5,253.5 Z"/></g>
<g><path style="opacity:0.2" fill="#f5d868" d="M 25.5,268.5 C 28.9812,269.99 30.9812,272.657 31.5,276.5C 29.1468,274.14 27.1468,271.473 25.5,268.5 Z"/></g>
<g><path style="opacity:1" fill="#f37900" d="M 153.5,253.5 C 160.167,253.5 166.833,253.5 173.5,253.5C 173.802,256.059 173.468,258.393 172.5,260.5C 172.167,260.5 171.833,260.5 171.5,260.5C 168.038,261.482 164.371,261.815 160.5,261.5C 160.826,269.684 160.492,277.684 159.5,285.5C 159.5,283.167 159.5,280.833 159.5,278.5C 157.5,278.5 155.5,278.5 153.5,278.5C 153.5,270.167 153.5,261.833 153.5,253.5 Z"/></g>
<g><path style="opacity:1" fill="#f96d03" d="M 171.5,260.5 C 168.979,260.56 166.646,259.894 164.5,258.5C 162.813,258.76 161.313,259.427 160,260.5C 159.829,265.533 159.329,270.533 158.5,275.5C 156.176,275.123 155.509,274.123 156.5,272.5C 155.268,269.7 154.601,266.7 154.5,263.5C 154.833,260.833 155.167,258.167 155.5,255.5C 160.77,254.549 166.103,254.215 171.5,254.5C 171.5,256.5 171.5,258.5 171.5,260.5 Z"/></g>
<g><path style="opacity:0.961" fill="#f9d45a" d="M 321.5,274.5 C 318.882,279.413 315.548,283.746 311.5,287.5C 310.086,285.402 310.752,284.402 313.5,284.5C 313.714,282.856 313.38,281.356 312.5,280C 313.449,279.383 314.282,279.549 315,280.5C 315.513,276.713 317.679,274.713 321.5,274.5 Z"/></g>
<g><path style="opacity:1" fill="#fb6f03" d="M 153.5,278.5 C 155.5,278.5 157.5,278.5 159.5,278.5C 159.5,280.833 159.5,283.167 159.5,285.5C 153.122,285.705 146.789,285.372 140.5,284.5C 140.5,282.5 140.5,280.5 140.5,278.5C 144.833,278.5 149.167,278.5 153.5,278.5 Z"/></g>
<g><path style="opacity:0.953" fill="#f1ce45" d="M 34.5,281.5 C 36.5816,281.624 38.0816,282.624 39,284.5C 39.8333,283.5 40.6667,282.5 41.5,281.5C 41.8333,282 42.1667,282.5 42.5,283C 41.8333,284 41.1667,285 40.5,286C 44.3851,288.494 46.7184,291.994 47.5,296.5C 42.8223,291.821 38.489,286.821 34.5,281.5 Z"/></g>
<g><path style="opacity:0.624" fill="#f1d554" d="M 305.5,293.5 C 303.234,297.436 300.234,300.769 296.5,303.5C 296.5,302.167 296.5,300.833 296.5,299.5C 297.5,299.5 298.5,299.5 299.5,299.5C 299.33,298.178 299.663,297.011 300.5,296C 302.249,295.215 303.916,294.382 305.5,293.5 Z"/></g>
<g><path style="opacity:0.482" fill="#f4d44a" d="M 296.5,303.5 C 290.603,309.784 283.936,315.117 276.5,319.5C 276.5,318.167 276.5,316.833 276.5,315.5C 277.873,315.657 279.207,315.49 280.5,315C 279.833,314.667 279.167,314.333 278.5,314C 281.425,312.557 284.425,311.391 287.5,310.5C 287.286,308.856 287.62,307.356 288.5,306C 290.939,304.39 293.606,303.556 296.5,303.5 Z"/></g>
<g><path style="opacity:0.867" fill="#f3d040" d="M 47.5,296.5 C 49.5932,297.045 51.5932,297.878 53.5,299C 55.6151,302.336 58.6151,304.669 62.5,306C 63.3802,307.356 63.7135,308.856 63.5,310.5C 66.8663,310.212 70.1996,310.046 73.5,310C 71.9559,310.29 70.6226,310.956 69.5,312C 69.926,315.592 71.926,317.092 75.5,316.5C 75.5,317.5 75.5,318.5 75.5,319.5C 81.3533,322.488 87.3533,325.321 93.5,328C 93.1667,328.333 92.8333,328.667 92.5,329C 94.0557,329.72 95.0557,330.887 95.5,332.5C 77.5147,323.186 61.5147,311.186 47.5,296.5 Z"/></g>
<g><path style="opacity:0.978" fill="#f5d553" d="M 276.5,319.5 C 271.848,323.831 266.514,327.165 260.5,329.5C 258.973,329.427 257.973,330.094 257.5,331.5C 254.995,333.011 252.328,334.345 249.5,335.5C 249.48,333.857 250.147,332.524 251.5,331.5C 255.166,330.671 258.166,328.838 260.5,326C 264.084,325.528 267.417,324.361 270.5,322.5C 271.386,321.675 271.719,320.675 271.5,319.5C 273.167,319.5 274.833,319.5 276.5,319.5 Z"/></g>
<g><path style="opacity:0.004" fill="#ffefce" d="M 260.5,329.5 C 260.027,330.906 259.027,331.573 257.5,331.5C 257.973,330.094 258.973,329.427 260.5,329.5 Z"/></g>
<g><path style="opacity:0.451" fill="#f3db79" d="M 95.5,332.5 C 98.3933,332.031 100.393,333.031 101.5,335.5C 99.2504,334.87 97.2504,333.87 95.5,332.5 Z"/></g>
<g><path style="opacity:0.827" fill="#f0d15b" d="M 101.5,335.5 C 105.416,335.025 108.749,336.025 111.5,338.5C 110.5,338.5 109.5,338.5 108.5,338.5C 105.982,337.736 103.649,336.736 101.5,335.5 Z"/></g>
<g><path style="opacity:0.125" fill="#f5e38a" d="M 249.5,335.5 C 247.351,336.736 245.018,337.736 242.5,338.5C 244.036,335.908 246.369,334.908 249.5,335.5 Z"/></g>
<g><path style="opacity:0.125" fill="#fde9a3" d="M 241.5,338.5 C 239.967,340.245 237.967,341.245 235.5,341.5C 237.033,339.755 239.033,338.755 241.5,338.5 Z"/></g>
<g><path style="opacity:0.086" fill="#feebb1" d="M 108.5,338.5 C 109.5,338.5 110.5,338.5 111.5,338.5C 113.076,339.143 114.41,340.143 115.5,341.5C 112.843,341.065 110.509,340.065 108.5,338.5 Z"/></g>
<g><path style="opacity:0.09" fill="#fff1c2" d="M 235.5,341.5 C 232.785,343.072 229.785,344.072 226.5,344.5C 229.084,342.528 232.084,341.528 235.5,341.5 Z"/></g>
<g><path style="opacity:0.961" fill="#f3d54d" d="M 116.5,341.5 C 122.127,342.525 127.793,343.358 133.5,344C 135.544,344.498 136.878,345.665 137.5,347.5C 130.065,346.684 123.065,344.684 116.5,341.5 Z"/></g>
<g><path style="opacity:0.037" fill="#fef1b0" d="M 222.5,345.5 C 219.781,346.913 216.781,347.58 213.5,347.5C 216.219,346.087 219.219,345.42 222.5,345.5 Z"/></g>
<g><path style="opacity:0.086" fill="#fce9b6" d="M 213.5,347.5 C 211.786,348.738 209.786,349.405 207.5,349.5C 207.5,349.167 207.5,348.833 207.5,348.5C 209.265,347.539 211.265,347.205 213.5,347.5 Z"/></g>
<g><path style="opacity:0.188" fill="#feefa2" d="M 137.5,347.5 C 143.674,348.22 149.674,349.22 155.5,350.5C 152.167,350.5 148.833,350.5 145.5,350.5C 142.913,349.251 140.246,348.251 137.5,347.5 Z"/></g>
<g><path style="opacity:0.106" fill="#fbe88d" d="M 207.5,348.5 C 207.5,348.833 207.5,349.167 207.5,349.5C 206.508,349.328 205.842,349.662 205.5,350.5C 200.833,350.5 196.167,350.5 191.5,350.5C 196.616,349.194 201.949,348.527 207.5,348.5 Z"/></g>
</svg>
